# xmcd
#
# Track frame offsets: 
#        150
#        36230
#        69298
#        84743
#        130327
#        141451
#        168771
#        196578
#        233399
#
# Disc length: 3395 seconds
#
# Revision: 0
# Processed by: cddbd v1.5.2PL0 Copyright (c) Steve Scherf et al.
# Submitted via: ExactAudioCopy v0.95b4
#
DISCID=6f0d4109
DTITLE=Limbonic Art - The Ultimate Death Worship
DYEAR=2002
DGENRE=Black Metal
TTITLE0=The Ultimate Death Worship
TTITLE1=Suicide Commando
TTITLE2=Purgatorial Agony
TTITLE3=Towards the Oblivion of Dreams
TTITLE4=Last Rite for the Silent Darkstar
TTITLE5=Interstellar Overdrive
TTITLE6=From the Shades of Hatred
TTITLE7=Funeral of Death
TTITLE8=Voyage of the Damned
EXTD=
EXTT0=
EXTT1=
EXTT2=
EXTT3=
EXTT4=
EXTT5=
EXTT6=
EXTT7=
EXTT8=
PLAYORDER=
